<?xml version="1.0" encoding="UTF-8"?>
<svg xmlns="http://www.w3.org/2000/svg" xmlns:xlink="http://www.w3.org/1999/xlink" width="31px" height="30px" viewBox="0 0 30 30" version="1.1">
<g id="surface1">
<path style=" stroke:none;fill-rule:evenodd;fill:rgb(100%,100%,100%);fill-opacity:1;" d="M 14.957031 0 C 6.683594 0 0 6.875 0 15.378906 C 0 22.179688 4.285156 27.933594 10.226562 29.972656 C 10.96875 30.125 11.242188 29.640625 11.242188 29.234375 C 11.242188 28.875 11.214844 27.652344 11.214844 26.378906 C 7.054688 27.296875 6.191406 24.546875 6.191406 24.546875 C 5.523438 22.765625 4.53125 22.304688 4.53125 22.304688 C 3.167969 21.363281 4.628906 21.363281 4.628906 21.363281 C 6.140625 21.464844 6.933594 22.941406 6.933594 22.941406 C 8.269531 25.285156 10.425781 24.625 11.289062 24.214844 C 11.414062 23.222656 11.8125 22.535156 12.230469 22.152344 C 8.914062 21.796875 5.421875 20.472656 5.421875 14.566406 C 5.421875 12.882812 6.015625 11.507812 6.957031 10.441406 C 6.808594 10.058594 6.289062 8.480469 7.105469 6.367188 C 7.105469 6.367188 8.367188 5.957031 11.214844 7.945312 C 12.433594 7.609375 13.691406 7.4375 14.957031 7.433594 C 16.21875 7.433594 17.503906 7.613281 18.695312 7.945312 C 21.542969 5.957031 22.804688 6.367188 22.804688 6.367188 C 23.621094 8.480469 23.101562 10.058594 22.953125 10.441406 C 23.917969 11.507812 24.488281 12.882812 24.488281 14.566406 C 24.488281 20.472656 20.996094 21.773438 17.652344 22.152344 C 18.199219 22.636719 18.667969 23.554688 18.667969 25.003906 C 18.667969 27.066406 18.644531 28.722656 18.644531 29.234375 C 18.644531 29.640625 18.917969 30.125 19.660156 29.972656 C 25.601562 27.933594 29.886719 22.179688 29.886719 15.378906 C 29.910156 6.875 23.199219 0 14.957031 0 Z M 14.957031 0 "/>
</g>
</svg>
