<svg width="23" height="17" viewBox="0 0 23 17" fill="none" xmlns="http://www.w3.org/2000/svg">
<path d="M6.48798 0.754957C7.07165 0.138322 8.01795 0.138322 8.60162 0.754957C9.18528 1.37159 9.18528 2.37136 8.60162 2.98799L5.10145 6.68409L21.5054 6.6845C22.2823 6.6845 22.9207 7.31072 22.9932 8.11143L23 8.26349C23 9.13555 22.3309 9.84249 21.5054 9.84249L5.10145 9.84175L8.60162 13.539C9.14637 14.1145 9.18269 15.0238 8.71057 15.6438L8.60162 15.772C8.01795 16.3887 7.07165 16.3887 6.48798 15.772L0.437748 9.38001C-0.145916 8.76338 -0.145916 7.76361 0.437748 7.14698L6.48798 0.754957Z" fill="#2B2B2B"/>
</svg>
