<svg width="150" height="146" viewBox="0 0 150 146" fill="none" xmlns="http://www.w3.org/2000/svg">
<path opacity="0.525154" fill-rule="evenodd" clip-rule="evenodd" d="M147.531 112.406C148.253 120.659 126.042 129.342 97.9225 131.803C69.8016 134.263 46.4201 129.568 45.698 121.315C44.9759 113.062 67.1869 104.377 95.3078 101.917C123.428 99.4566 146.809 104.152 147.531 112.406Z" fill="#C7B299"/>
<path d="M58.0919 127.092C87.966 135.097 118.673 117.368 126.678 87.4939C134.682 57.6198 116.954 26.9129 87.0796 18.9082C57.2055 10.9034 26.4987 28.6321 18.4939 58.5062C10.4892 88.3803 28.2178 119.087 58.0919 127.092Z" fill="#6F41D8" stroke="white" stroke-width="6"/>
<path d="M60.1235 71.2137L66.4875 82.2364" stroke="white" stroke-width="7" stroke-linecap="round"/>
<path d="M87.895 64.1612L66.4403 82.2636" stroke="white" stroke-width="7" stroke-linecap="round"/>
</svg>
