<svg width="32" height="25" viewBox="0 0 32 25" fill="none" xmlns="http://www.w3.org/2000/svg">
<path d="M31.9375 15.1723C31.9025 14.5617 31.9031 13.9467 31.8049 13.3431C31.156 9.34151 29.6098 5.70601 27.4091 2.33841C27.2691 2.1237 27.079 1.99703 26.8545 1.89949C26.2706 1.64615 25.6823 1.40357 25.0846 1.18379C23.6916 0.672034 22.2655 0.282515 20.8057 0.0203028C20.5562 -0.024666 20.3843 0.0431039 20.253 0.262248C20.101 0.515593 19.9735 0.780972 19.8491 1.04762C19.5615 1.66325 19.4946 1.69112 18.8131 1.60688C18.1316 1.52264 17.447 1.4669 16.7599 1.45234C15.4789 1.42447 14.201 1.47324 12.9274 1.62968C12.5342 1.67781 12.4222 1.60498 12.2441 1.23193C12.099 0.927913 11.9458 0.628332 11.7758 0.337618C11.577 -0.00123139 11.4919 -0.0411334 11.1181 0.0291699C9.24745 0.37942 7.43497 0.929813 5.67688 1.66388C5.18985 1.86719 4.73282 2.0743 4.41709 2.57972C2.87095 5.05617 1.61866 7.66436 0.832151 10.4892C0.457652 11.8344 0.138796 13.1924 0.0856534 14.5984C0.0668972 15.1019 0.0625208 15.6061 0 16.1071V19.5893C0.0500166 19.9009 0.0462654 20.2157 0.0543931 20.5299C0.0606451 20.7591 0.138171 20.9333 0.333861 21.0758C2.644 22.7561 5.14671 24.0469 7.85823 24.9191C8.23461 25.0401 8.34027 25.0077 8.57222 24.679C9.05738 23.9918 9.49503 23.2742 9.88453 22.5281C10.1778 21.967 10.1577 21.9201 9.5788 21.6832C9.00799 21.4501 8.46031 21.1696 7.9195 20.8751C7.8176 20.82 7.70818 20.7452 7.75257 20.6065C7.79946 20.4596 7.93388 20.4469 8.06393 20.4608C8.22148 20.4773 8.36278 20.5508 8.50595 20.6122C10.5566 21.492 12.6942 22.0233 14.9162 22.1411C16.7087 22.2362 18.4918 22.1076 20.248 21.6839C21.4471 21.395 22.6069 20.996 23.7416 20.5128C23.9054 20.4431 24.118 20.3715 24.2162 20.5736C24.33 20.8086 24.0867 20.87 23.9423 20.9485C23.3821 21.2519 22.8057 21.5205 22.2149 21.7592C21.901 21.8859 21.8516 22.0341 21.9992 22.3223C22.4174 23.1374 22.8813 23.9241 23.4128 24.6689C23.6847 25.0508 23.7135 25.0584 24.1661 24.9115C26.8752 24.033 29.3791 22.7447 31.6868 21.06C31.8631 20.9314 31.9325 20.775 31.9387 20.5596C31.9487 20.2151 31.95 19.8686 32 19.526V16.2338C31.9462 15.8816 31.9581 15.5257 31.9375 15.1716V15.1723ZM13.5664 13.7219C13.5501 14.6662 13.2632 15.5029 12.5929 16.1799C11.582 17.2003 10.0984 17.2706 8.99549 16.356C7.40683 15.0392 7.43747 12.3247 9.05488 11.0465C10.5616 9.8558 12.703 10.581 13.3694 12.5096C13.5045 12.901 13.5764 13.3045 13.5664 13.7219ZM23.2471 16.1628C22.2086 17.2262 20.6656 17.2776 19.554 16.2939C18.0941 15.0031 18.091 12.4615 19.5465 11.1656C20.7838 10.0642 22.5856 10.2928 23.5716 11.6755C23.9898 12.2619 24.1974 12.9447 24.1962 13.7269C24.1862 14.6611 23.9036 15.4902 23.2465 16.1628H23.2471Z" fill="#7E7E7E"/>
</svg>
