<svg width="20" height="20" viewBox="0 0 20 20" fill="none" xmlns="http://www.w3.org/2000/svg">
<path fill-rule="evenodd" clip-rule="evenodd" d="M0 5.13646C0 2.29967 2.29972 0 5.13656 0H8.94423H8.98396V0.000615702C9.66022 0.0216017 10.202 0.57641 10.202 1.25775C10.202 1.9391 9.66022 2.49391 8.98396 2.51489V2.51977H5.13656C3.69138 2.51977 2.51982 3.6913 2.51982 5.13646V14.8279C2.51982 16.2731 3.69138 17.4446 5.13656 17.4446H14.8282C16.2734 17.4446 17.4449 16.2731 17.4449 14.8279V11.4795H17.4495C17.4491 11.466 17.4488 11.4524 17.4488 11.4388C17.4488 10.7442 18.0119 10.181 18.7066 10.181C19.4012 10.181 19.9643 10.7442 19.9643 11.4388C19.9643 11.4524 19.9641 11.466 19.9637 11.4795H19.9647V14.8279C19.9647 17.6647 17.665 19.9644 14.8282 19.9644H5.13656C2.29972 19.9644 0 17.6647 0 14.8279V5.13646ZM10.0979 8.13327C9.61059 8.62055 9.61059 9.4106 10.0979 9.89789C10.5852 10.3852 11.3752 10.3852 11.8625 9.89789L17.5042 4.2562L17.5042 5.7891C17.5042 6.47823 18.0628 7.03687 18.752 7.03687C19.4411 7.03688 19.9997 6.47823 19.9997 5.7891L19.9997 1.29712C19.9997 1.13378 19.9683 0.977773 19.9113 0.834795C19.7311 0.367349 19.2776 0.0357005 18.7466 0.0357005L14.2546 0.0356995C13.5655 0.0356995 13.0068 0.594346 13.0068 1.28347C13.0068 1.9726 13.5655 2.53124 14.2546 2.53124L15.6999 2.53124L10.0979 8.13327Z" fill="#888BAA"/>
</svg>
