<svg width="22" height="20" viewBox="0 0 22 20" fill="none" xmlns="http://www.w3.org/2000/svg">
<path d="M20.0108 1L12.1978 6.78112L13.6507 3.37412L20.0108 1Z" fill="#E17726" stroke="#E17726" stroke-width="0.25" stroke-linecap="round" stroke-linejoin="round"/>
<path d="M1.98926 1L9.73277 6.83507L8.34946 3.37411L1.98926 1Z" fill="#E27625" stroke="#E27625" stroke-width="0.25" stroke-linecap="round" stroke-linejoin="round"/>
<path d="M17.1975 14.4044L15.1187 17.5802L19.57 18.8058L20.8452 14.4738L17.1975 14.4044Z" fill="#E27625" stroke="#E27625" stroke-width="0.25" stroke-linecap="round" stroke-linejoin="round"/>
<path d="M1.16211 14.4738L2.4295 18.8058L6.87315 17.5802L4.80201 14.4044L1.16211 14.4738Z" fill="#E27625" stroke="#E27625" stroke-width="0.25" stroke-linecap="round" stroke-linejoin="round"/>
<path d="M6.63344 9.03961L5.39697 10.905L9.80195 11.1054L9.65514 6.3649L6.63344 9.03961Z" fill="#E27625" stroke="#E27625" stroke-width="0.25" stroke-linecap="round" stroke-linejoin="round"/>
<path d="M15.3662 9.03966L12.2982 6.31098L12.1978 11.1055L16.6027 10.9051L15.3662 9.03966Z" fill="#E27625" stroke="#E27625" stroke-width="0.25" stroke-linecap="round" stroke-linejoin="round"/>
<path d="M6.87305 17.5802L9.53919 16.293L7.24401 14.5047L6.87305 17.5802Z" fill="#E27625" stroke="#E27625" stroke-width="0.25" stroke-linecap="round" stroke-linejoin="round"/>
<path d="M12.4604 16.293L15.1189 17.5802L14.7556 14.5047L12.4604 16.293Z" fill="#E27625" stroke="#E27625" stroke-width="0.25" stroke-linecap="round" stroke-linejoin="round"/>
<path d="M15.1189 17.5803L12.4604 16.2931L12.6768 18.0197L12.6536 18.752L15.1189 17.5803Z" fill="#D5BFB2" stroke="#D5BFB2" stroke-width="0.25" stroke-linecap="round" stroke-linejoin="round"/>
<path d="M6.87305 17.5803L9.34604 18.752L9.33057 18.0197L9.53919 16.2931L6.87305 17.5803Z" fill="#D5BFB2" stroke="#D5BFB2" stroke-width="0.25" stroke-linecap="round" stroke-linejoin="round"/>
<path d="M9.39237 13.3639L7.18213 12.7164L8.74319 11.9996L9.39237 13.3639Z" fill="#233447" stroke="#233447" stroke-width="0.25" stroke-linecap="round" stroke-linejoin="round"/>
<path d="M12.6074 13.3639L13.2566 11.9996L14.8254 12.7164L12.6074 13.3639Z" fill="#233447" stroke="#233447" stroke-width="0.25" stroke-linecap="round" stroke-linejoin="round"/>
<path d="M6.87334 17.5802L7.25977 14.4044L4.80225 14.4738L6.87334 17.5802Z" fill="#CC6228" stroke="#CC6228" stroke-width="0.25" stroke-linecap="round" stroke-linejoin="round"/>
<path d="M14.7402 14.4044L15.1189 17.5802L17.1978 14.4738L14.7402 14.4044Z" fill="#CC6228" stroke="#CC6228" stroke-width="0.25" stroke-linecap="round" stroke-linejoin="round"/>
<path d="M16.6027 10.9049L12.1978 11.1053L12.6073 13.3639L13.2565 11.9995L14.8253 12.7164L16.6027 10.9049Z" fill="#CC6228" stroke="#CC6228" stroke-width="0.25" stroke-linecap="round" stroke-linejoin="round"/>
<path d="M7.18215 12.7164L8.7432 11.9995L9.39238 13.3639L9.80195 11.1053L5.39697 10.9049L7.18215 12.7164Z" fill="#CC6228" stroke="#CC6228" stroke-width="0.25" stroke-linecap="round" stroke-linejoin="round"/>
<path d="M5.39746 10.9049L7.24448 14.5046L7.18261 12.7164L5.39746 10.9049Z" fill="#E27525" stroke="#E27525" stroke-width="0.25" stroke-linecap="round" stroke-linejoin="round"/>
<path d="M14.8254 12.7164L14.7559 14.5046L16.6029 10.9049L14.8254 12.7164Z" fill="#E27525" stroke="#E27525" stroke-width="0.25" stroke-linecap="round" stroke-linejoin="round"/>
<path d="M9.80221 11.1053L9.39258 13.3639L9.91035 16.0309L10.0263 12.516L9.80221 11.1053Z" fill="#E27525" stroke="#E27525" stroke-width="0.25" stroke-linecap="round" stroke-linejoin="round"/>
<path d="M12.1979 11.1053L11.9814 12.5083L12.0897 16.0309L12.6074 13.3639L12.1979 11.1053Z" fill="#E27525" stroke="#E27525" stroke-width="0.25" stroke-linecap="round" stroke-linejoin="round"/>
<path d="M12.6076 13.3639L12.0898 16.0309L12.4608 16.293L14.756 14.5047L14.8256 12.7164L12.6076 13.3639Z" fill="#F5841F" stroke="#F5841F" stroke-width="0.25" stroke-linecap="round" stroke-linejoin="round"/>
<path d="M7.18213 12.7164L7.244 14.5047L9.53918 16.293L9.91014 16.0309L9.39237 13.3639L7.18213 12.7164Z" fill="#F5841F" stroke="#F5841F" stroke-width="0.25" stroke-linecap="round" stroke-linejoin="round"/>
<path d="M12.6536 18.7519L12.6768 18.0196L12.4759 17.85H9.52379L9.33057 18.0196L9.34604 18.7519L6.87305 17.5802L7.73858 18.2894L9.49285 19.4996H12.499L14.261 18.2894L15.1188 17.5802L12.6536 18.7519Z" fill="#C0AC9D" stroke="#C0AC9D" stroke-width="0.25" stroke-linecap="round" stroke-linejoin="round"/>
<path d="M12.4604 16.2929L12.0895 16.0309H9.91015L9.53925 16.2929L9.33057 18.0196L9.52378 17.85H12.4759L12.6768 18.0196L12.4604 16.2929Z" fill="#161616" stroke="#161616" stroke-width="0.25" stroke-linecap="round" stroke-linejoin="round"/>
<path d="M20.343 7.1588L20.9999 3.96764L20.0107 1L12.4604 6.58844L15.3661 9.0396L19.4697 10.2344L20.3739 9.17838L19.9798 8.89314L20.6058 8.32278L20.1266 7.95277L20.7526 7.47486L20.343 7.1588Z" fill="#763E1A" stroke="#763E1A" stroke-width="0.25" stroke-linecap="round" stroke-linejoin="round"/>
<path d="M1 3.96764L1.66461 7.1588L1.23957 7.47486L1.87327 7.95277L1.39413 8.32278L2.0201 8.89314L1.62597 9.17838L2.53015 10.2344L6.63377 9.0396L9.53947 6.58844L1.98919 1L1 3.96764Z" fill="#763E1A" stroke="#763E1A" stroke-width="0.25" stroke-linecap="round" stroke-linejoin="round"/>
<path d="M19.47 10.2343L15.3664 9.0396L16.6029 10.905L14.7559 14.5047L17.1979 14.4738H20.8455L19.47 10.2343Z" fill="#F5841F" stroke="#F5841F" stroke-width="0.25" stroke-linecap="round" stroke-linejoin="round"/>
<path d="M6.63353 9.0396L2.52997 10.2343L1.16211 14.4738H4.80201L7.24405 14.5047L5.39707 10.905L6.63353 9.0396Z" fill="#F5841F" stroke="#F5841F" stroke-width="0.25" stroke-linecap="round" stroke-linejoin="round"/>
<path d="M12.1977 11.1054L12.4604 6.58838L13.6505 3.37411H8.34912L9.53922 6.58838L9.80197 11.1054L9.90244 12.5237L9.91018 16.0309H12.0895L12.0972 12.5237L12.1977 11.1054Z" fill="#F5841F" stroke="#F5841F" stroke-width="0.25" stroke-linecap="round" stroke-linejoin="round"/>
</svg>
