<?xml version="1.0" encoding="utf-8"?>
<svg fill="#2b2b2b" version="1.1" xmlns="http://www.w3.org/2000/svg" xmlns:xlink="http://www.w3.org/1999/xlink" x="0px" y="0px" viewBox="0 0 1000 1000" enable-background="new 0 0 1000 1000" xml:space="preserve">
  <g>
    <path d="M174,535.4c-23.5-147,57.2-295.5,201.4-351.7c106.8-41.7,222-21.7,303.6,37.8L609.6,334l311.3-1.2L809.6,10l-57,92.3C632.4,24.5,468.6-1,325.1,54.9C126.4,132.4,12,332.8,34.6,535.4H174z"/>
    <path d="M826.1,455c23.5,147-57.2,295.5-201.4,351.7c-98.3,38.3-206.6,23.9-289.9-27.8c15.9-25.7,62.7-101.6,62.7-101.6L62.8,657.6L204.5,990l59.4-96.2c120.2,77.8,267.6,97.6,411,41.7C873.6,858,988,657.6,965.5,455L826.1,455L826.1,455z"/>
  </g>
</svg>
