<svg width="36" height="30" viewBox="0 0 36 30" fill="none" xmlns="http://www.w3.org/2000/svg">
<path d="M35.4353 15.6169L19.6234 28.7877C19.2469 29.164 18.6822 29.164 18.1175 28.9759C17.5528 28.7877 17.3646 28.2232 17.3646 27.6588V21.6378L1.31766 19.38C0.56471 19.38 0 18.6273 0 17.8747L0 11.2893C0 10.5367 0.56471 9.97222 1.31766 9.78406L17.3646 7.5262V1.50524C17.3646 0.940779 17.741 0.376312 18.1175 0.188158C18.3057 0.188158 18.494 3.8147e-06 18.6822 3.8147e-06C19.0587 3.8147e-06 19.2469 0.18816 19.6234 0.376314L35.4353 13.359C35.8118 13.5472 36 14.1116 36 14.4879C36 15.0524 35.8118 15.4287 35.4353 15.6169Z" fill="#CECECE"/>
</svg>
